<svg xmlns="http://www.w3.org/2000/svg" width="56.136" height="49.898" viewBox="0 0 56.136 49.898">
  <path id="Icon_awesome-shopping-cart" data-name="Icon awesome-shopping-cart" d="M51.469,29.366,56.077,9.095A2.339,2.339,0,0,0,53.8,6.237H15.516L14.623,1.87A2.339,2.339,0,0,0,12.331,0H2.339A2.339,2.339,0,0,0,0,2.339V3.9A2.339,2.339,0,0,0,2.339,6.237H9.15L16,39.708a5.458,5.458,0,1,0,6.534.835H42.962a5.456,5.456,0,1,0,6.2-1.014l.538-2.366a2.339,2.339,0,0,0-2.281-2.857H21.257l-.638-3.119H49.189A2.339,2.339,0,0,0,51.469,29.366Z" fill="#fff"/>
</svg>
