<svg xmlns="http://www.w3.org/2000/svg" width="16.85" height="16.746" viewBox="0 0 16.85 16.746">
  <g id="Group_41" data-name="Group 41" transform="translate(-670.403 -558.133)">
    <path id="Icon_awesome-arrow-circle-right" data-name="Icon awesome-arrow-circle-right" d="M5.265,13.72ZM12.27,8.236,16.3,12.1H6.547a1.279,1.279,0,0,0-1.282,1.282v.855a1.279,1.279,0,0,0,1.282,1.282H16.3L12.27,19.393a1.284,1.284,0,0,0-.021,1.833l.588.582a1.277,1.277,0,0,0,1.811,0l7.091-7.085a1.277,1.277,0,0,0,0-1.811l-7.091-7.1a1.277,1.277,0,0,0-1.811,0l-.588.582A1.29,1.29,0,0,0,12.27,8.236Z" transform="translate(665.139 552.695)" fill="#fff" fillOpacity="0.4" />
  </g>
</svg>
